<?xml version="1.0" encoding="UTF-8" standalone="no"?>
<!DOCTYPE svg PUBLIC "-//W3C//DTD SVG 1.1//EN" "http://www.w3.org/Graphics/SVG/1.1/DTD/svg11.dtd">
<svg width="100%" height="100%" viewBox="0 0 237 250" version="1.1" xmlns="http://www.w3.org/2000/svg" xmlns:xlink="http://www.w3.org/1999/xlink" xml:space="preserve" xmlns:serif="http://www.serif.com/" style="fill-rule:evenodd;clip-rule:evenodd;stroke-linejoin:round;stroke-miterlimit:2;">
    <g transform="matrix(2.14264,0,0,2.145923,-13.712894,-15.236052)">
        <path d="M111.7,101.4C108.6,101.4 106.2,103.9 106.2,106.9C106.2,110 103.7,112.4 100.7,112.4C97.7,112.4 95,110 95,107L95,78.8C95.7,77.4 96.1,75.9 96.1,74.2L96.1,41.9C96.1,22.7 80.5,7.1 61.4,7.1C42.3,7.1 26.6,22.7 26.6,41.9L26.6,74.2C26.6,76.4 27.3,78.5 28.5,80.2L28.5,107C28.5,110.1 26,112.5 22.9,112.5C19.8,112.5 17.4,110 17.4,107C17.4,104 14.9,101.5 11.9,101.5C8.8,101.5 6.4,104 6.4,107C6.4,115.8 13.3,122.9 21.9,123.5C22.3,123.6 22.6,123.6 23,123.6C23.4,123.6 23.8,123.6 24.1,123.5C32.7,122.9 39.6,115.8 39.6,107L39.6,84.8C39.6,84.8 39.3,80.1 43.3,80.1C47.3,80.1 47,84.8 47,84.8L47,106.8C47,109.9 49.5,112.3 52.5,112.3C55.5,112.3 58,109.8 58,106.8L58,84.8C58,84.8 57.2,80.1 61.7,80.1C66.2,80.1 65.4,84.8 65.4,84.8L65.4,106.8C65.4,109.9 67.9,112.3 70.9,112.3C74,112.3 76.4,109.8 76.4,106.8L76.4,84.8C76.4,84.8 76.1,80.1 80.1,80.1C84.1,80.1 83.8,84.8 83.8,84.8L83.8,107C83.8,115.8 90.7,122.9 99.3,123.5C99.7,123.6 100,123.6 100.4,123.6C100.8,123.6 101.2,123.6 101.5,123.5C110.2,122.9 117,115.8 117,107C117.2,103.9 114.7,101.4 111.7,101.4M43.2,70C40.1,70 37.7,66.9 37.7,63.1C37.7,59.3 40.2,56.2 43.2,56.2C46.2,56.2 48.7,59.3 48.7,63.1C48.8,66.9 46.3,70 43.2,70M80.2,70C77.1,70 74.7,66.9 74.7,63.1C74.7,59.3 77.2,56.2 80.2,56.2C83.2,56.2 85.7,59.3 85.7,63.1C85.8,66.9 83.3,70 80.2,70" style="fill:rgb(100,44,194);fill-rule:nonzero;"/>
    </g>
</svg>
